<svg width="99" height="56" viewBox="0 0 99 56" fill="none" xmlns="http://www.w3.org/2000/svg">
<path d="M5.992 7.552L0.736 6.544V1.504H11.968C13.552 1.504 15.688 1.408 18.376 1.216C19 1.168 19.936 1.12 21.184 1.072C22.48 1.024 23.632 0.999996 24.64 0.999996C33.376 0.999996 39.952 3.184 44.368 7.552C48.784 11.92 50.992 18.184 50.992 26.344C50.992 31.96 49.912 36.976 47.752 41.392C45.592 45.808 42.496 49.288 38.464 51.832C34.432 54.328 29.68 55.576 24.208 55.576C22.72 55.576 20.488 55.48 17.512 55.288C14.728 55.096 12.928 55 12.112 55H0.448V50.248L5.992 49.456V7.552ZM18.16 49.672C19.84 50.2 21.76 50.416 23.92 50.32C28.24 50.272 31.576 48.448 33.928 44.848C36.328 41.2 37.528 35.632 37.528 28.144C37.528 21.232 36.352 15.832 34 11.944C31.696 8.008 28.048 6.04 23.056 6.04C21.904 6.04 20.872 6.112 19.96 6.256C19.048 6.4 18.448 6.496 18.16 6.544V49.672Z" fill="#05EA00"/>
<path d="M80.2021 55.792C71.8981 55.792 65.5861 53.392 61.2661 48.592C56.9461 43.744 54.7861 37.12 54.7861 28.72C54.7861 23.056 55.9381 18.136 58.2421 13.96C60.5461 9.736 63.7141 6.52 67.7461 4.312C71.7781 2.056 76.3381 0.927997 81.4261 0.927997C83.4421 0.927997 85.3861 1.048 87.2581 1.288C89.1301 1.48 91.3861 1.768 94.0261 2.152C96.0901 2.488 97.5061 2.68 98.2741 2.728L97.4101 18.784H89.7061L87.2581 7.768C86.2021 6.616 83.9941 6.04 80.6341 6.04C76.9381 6.04 74.0101 7.888 71.8501 11.584C69.7381 15.232 68.6821 20.608 68.6821 27.712C68.6821 34.624 69.7141 40.168 71.7781 44.344C73.8901 48.52 76.9381 50.608 80.9221 50.608C82.8901 50.608 84.3781 50.416 85.3861 50.032C86.4421 49.648 87.3301 49.096 88.0501 48.376L91.2901 40.672L98.3461 41.32L97.0501 53.056C95.6581 53.152 93.9541 53.512 91.9381 54.136C90.0181 54.664 88.1941 55.072 86.4661 55.36C84.7861 55.648 82.6981 55.792 80.2021 55.792Z" fill="#0094FF"/>
</svg>
